<?xml version="1.0" encoding="utf-8"?>
<!-- Svg Vector Icons : http://www.onlinewebfonts.com/icon -->
<!DOCTYPE svg PUBLIC "-//W3C//DTD SVG 1.1//EN" "http://www.w3.org/Graphics/SVG/1.1/DTD/svg11.dtd">
<svg version="1.1" xmlns="http://www.w3.org/2000/svg" xmlns:xlink="http://www.w3.org/1999/xlink" x="0px" y="0px" viewBox="0 0 256 256" enable-background="new 0 0 256 256" xml:space="preserve">
<metadata> Svg Vector Icons : http://www.onlinewebfonts.com/icon </metadata>
<g><g><path fill="red" d="M89.5,75.5l92.7,92.7l-12.4,12.3L77.2,87.8L89.5,75.5L89.5,75.5z"/><path fill="red" d="M169.9,75.5l12.4,12.4l-92.7,92.7l-12.4-12.4L169.9,75.5L169.9,75.5z"/><path fill="red" d="M128,246c-65.1,0-118-52.9-118-118C10,62.9,62.9,10,128,10c65.1,0,118,52.9,118,118C246,193.1,193.1,246,128,246z M128,27.5C72.6,27.5,27.5,72.5,27.5,128c0,55.5,45.1,100.5,100.5,100.5c55.4,0,100.5-45.1,100.5-100.5C228.5,72.6,183.4,27.5,128,27.5L128,27.5z"/></g></g>
</svg>